<svg xmlns="http://www.w3.org/2000/svg" viewBox="0 0 700 900" role="img" aria-labelledby="title desc">
  <title id="title">简约线条版路卡利欧远行插画</title><desc id="desc">路卡利欧背影走向远方，深海蓝线条与冰蓝色地平线和风的轨迹。</desc>
  <rect width="700" height="900" fill="#e8f5f7"/>
  <g fill="none" stroke="#102b3f" stroke-width="8" stroke-linecap="round" stroke-linejoin="round">
    <path d="M350 290c-54 0-95 44-95 101 0 43 24 76 53 91l-16 94-56 184h228l-56-184-16-94c29-15 53-48 53-91 0-57-41-101-95-101Z"/>
    <path d="M270 310c-33-44-49-91-39-143 40 17 78 24 116 20 25-34 55-56 91-67 17 43 19 88 5 134 35 2 69-7 103-27-7 61-34 110-77 145"/>
    <path d="M297 482c34 22 72 33 113 33 38 0 75-11 110-33M300 583l-44 154M400 583l44 154M238 769h225"/>
  </g>
  <g fill="none" stroke="#58b8c7" stroke-width="5" opacity=".85">
    <path d="M75 685c100-54 187-57 275-9 87 48 177 45 275-9M105 754c72-32 139-32 202 0 65 32 137 32 216 0"/><circle cx="350" cy="440" r="80"/><circle cx="350" cy="440" r="119"/>
  </g>
  <g fill="#58b8c7"><circle cx="115" cy="181" r="6"/><circle cx="588" cy="241" r="5"/><circle cx="122" cy="790" r="4"/><circle cx="575" cy="798" r="6"/></g>
</svg>
